<svg xmlns="http://www.w3.org/2000/svg" viewBox="0 0 24 24">
  <path fill="currentColor" d="M7.75 18C7.75 17.31 7.19 16.75 6.5 16.75C5.81 16.75 5.25 17.31 5.25 18C5.25 18.69 5.81 19.25 6.5 19.25C7.19 19.25 7.75 18.69 7.75 18ZM7.75 6C7.75 5.31 7.19 4.75 6.5 4.75C5.81 4.75 5.25 5.31 5.25 6C5.25 6.69 5.81 7.25 6.5 7.25C7.19 7.25 7.75 6.69 7.75 6ZM18.75 6C18.75 5.31 18.19 4.75 17.5 4.75C16.81 4.75 16.25 5.31 16.25 6C16.25 6.69 16.81 7.25 17.5 7.25C18.19 7.25 18.75 6.69 18.75 6ZM20.75 6C20.75 7.446 19.805 8.67 18.5 9.092V10C18.5 11.657 17.157 13 15.5 13H8.5C7.948 13 7.5 13.448 7.5 14V14.907C8.806 15.329 9.75 16.554 9.75 18C9.75 19.795 8.295 21.25 6.5 21.25C4.705 21.25 3.25 19.795 3.25 18C3.25 16.554 4.194 15.329 5.5 14.907V9.092C4.195 8.67 3.25 7.446 3.25 6C3.25 4.205 4.705 2.75 6.5 2.75C8.295 2.75 9.75 4.205 9.75 6C9.75 7.446 8.805 8.67 7.5 9.092V11.174C7.813 11.063 8.149 11 8.5 11H15.5C16.052 11 16.5 10.552 16.5 10V9.092C15.195 8.67 14.25 7.446 14.25 6C14.25 4.205 15.705 2.75 17.5 2.75C19.295 2.75 20.75 4.205 20.75 6Z"/>
</svg>
